<svg width="63" height="48" viewBox="0 0 63 48" fill="none" xmlns="http://www.w3.org/2000/svg">
<path fill-rule="evenodd" clip-rule="evenodd" d="M28.8652 0.0325948C26.2149 0.18141 23.3038 0.897541 21.0963 1.94372C20.8152 2.07698 20.5699 2.19021 20.5511 2.19537C20.2492 2.27887 18.7008 3.17789 17.723 3.83737C16.2344 4.84142 14.451 6.40942 13.2855 7.73899C12.5038 8.63078 10.8741 10.8346 10.8741 11C10.8741 11.0198 10.7866 11.1692 10.6796 11.332C10.4912 11.6188 10.3685 11.8388 9.74676 13.0047C9.06024 14.292 8.21569 16.5581 7.84197 18.1155L7.65613 18.8898H7.33631C6.92804 18.8898 6.38101 19.159 6.13963 19.4787C5.80551 19.9211 5.71092 20.4791 5.87059 21.0653C5.90303 21.1844 5.82704 21.2697 5.44473 21.5432C4.19497 22.4374 2.30789 24.125 2.39627 24.2694C2.41699 24.3033 2.40704 24.3225 2.37419 24.3121C2.19524 24.2554 0.997743 26.0294 0.627701 26.8994C-0.269806 29.0097 -0.205336 31.0709 0.824241 33.1788C1.12545 33.7956 1.19715 34.0085 1.19715 34.2864C1.19715 35.5266 2.01315 36.9812 2.9835 37.471C3.46688 37.715 3.95625 37.7629 3.89696 37.5606C3.81906 37.2949 3.58164 35.938 3.60835 35.911C3.62403 35.8952 3.67486 36.0004 3.72127 36.1449C3.93791 36.8195 4.75964 38.2987 5.18631 38.7823C5.80482 39.4834 6.1643 39.8396 6.51002 40.0939C7.40207 40.75 8.19531 41.0757 9.19968 41.1983C9.53967 41.2397 9.82214 41.2784 9.82732 41.2842C9.83256 41.29 9.97963 42.0536 10.1541 42.9811C10.3285 43.9086 10.5202 44.8224 10.58 45.0117C10.9907 46.3123 12.0524 47.3744 13.371 47.8036C13.7145 47.9155 14.0645 47.9642 14.6904 47.9871C15.4561 48.0151 15.5946 48.0013 16.0601 47.8506C17.2364 47.4697 18.2445 46.4329 18.6675 45.1691C18.7549 44.9076 19.3813 40.9009 19.9026 37.268C19.9541 36.9084 20.1204 35.7778 20.272 34.7557C20.5159 33.1109 20.6827 31.975 20.7928 31.2108C20.8887 30.5449 20.9702 30.0762 20.9945 30.0517C21.0348 30.011 21.0752 30.233 21.2661 31.5448C21.3617 32.2018 21.4544 32.8368 21.4721 32.9559C21.4898 33.0751 21.7655 34.9536 22.0848 37.1304C23.2142 44.8297 23.1503 44.4834 23.6303 45.5094C23.8677 46.017 24.4969 46.8356 24.9011 47.1629C25.2981 47.4843 26.0406 47.852 26.4782 47.944C27.0335 48.0606 28.3239 47.9855 28.8199 47.8076C30.309 47.2737 31.3486 46.0234 31.6596 44.3922C31.786 43.7289 32.4617 39.932 32.7435 38.3005C32.8188 37.8652 32.9564 37.0908 33.0494 36.5797C33.7881 32.5196 34.7263 27.0684 34.6951 27.0174C34.6741 26.983 34.6811 26.9446 34.7107 26.9318C34.7403 26.9192 34.9754 25.7163 35.2331 24.2587C35.4908 22.8012 35.7157 21.5545 35.7328 21.4882C35.7621 21.3749 35.5905 21.3678 32.8257 21.3678C31.2096 21.3678 29.887 21.391 29.8866 21.4194C29.8862 21.4478 29.8092 21.9976 29.7156 22.6412C29.6219 23.2848 29.4396 24.5392 29.3104 25.4289C29.1812 26.3185 28.92 28.1151 28.73 29.4212C28.5399 30.7272 28.3247 32.214 28.2517 32.7251C28.1787 33.2362 27.9972 34.4907 27.8483 35.5128C27.6994 36.535 27.5587 37.5107 27.5356 37.681C27.4714 38.1549 27.4311 38.3204 27.39 38.2789C27.3509 38.2395 27.2044 37.3761 27.0957 36.5453C27.0357 36.0866 26.8929 35.1221 26.5098 32.5874C26.4154 31.9628 26.3245 31.4052 26.3077 31.3485C26.2909 31.2917 26.2618 31.092 26.2431 30.9048C26.2116 30.5898 25.9704 28.968 25.6591 26.9776C25.5881 26.5233 25.5141 26.0014 25.4948 25.8176C25.4754 25.6339 25.3988 25.2249 25.3243 24.9085C24.7345 22.4001 23.3048 20.9591 21.403 20.9562C19.6441 20.9535 18.0138 21.8786 17.2855 23.2924C16.9509 23.942 16.8803 24.2432 16.5671 26.3581C16.4324 27.2667 16.2481 28.4902 16.1573 29.077C16.0666 29.6638 15.9738 30.2678 15.951 30.4192C15.9283 30.5707 15.6804 32.1968 15.4 34.0329C15.1197 35.869 14.8762 37.5054 14.8589 37.6693C14.7926 38.2964 14.7178 38.147 14.5283 37.009C14.4227 36.3754 14.3228 35.764 14.3061 35.6505C14.2893 35.5369 14.2137 35.0568 14.1379 34.5836C14.0622 34.1104 13.989 33.6457 13.9752 33.5511C13.9113 33.1114 13.6301 31.3189 13.1545 28.3198C12.6727 25.2815 12.4631 23.9522 12.1775 22.1249L12.0645 21.4022L10.413 21.3837C9.50471 21.3736 8.76155 21.3541 8.76155 21.3405C8.76155 21.3269 8.80755 21.2046 8.86377 21.0686C9.05766 20.6 8.98624 20.0242 8.67719 19.564C8.51111 19.3167 8.52637 19.2963 9.59146 18.3392C10.0759 17.9038 10.5307 17.4933 10.6022 17.4271C10.6736 17.3609 10.7491 17.3067 10.7697 17.3067C10.8038 17.3067 11.5878 16.6835 12.5841 15.8646C12.7937 15.6924 13.2856 15.2727 13.6774 14.932C14.9917 13.7888 16.8958 12.2931 17.8418 11.6608C17.9821 11.5671 18.0971 11.4671 18.0973 11.4387C18.0976 11.4104 18.1287 11.3871 18.1666 11.3871C18.2044 11.3871 18.4881 11.2221 18.7969 11.0204C19.1058 10.8188 19.5579 10.5325 19.8015 10.3844C20.0451 10.2362 20.2598 10.0992 20.2785 10.0799C20.2973 10.0606 20.4966 9.94699 20.7215 9.82736C21.8254 9.24008 22.4845 8.91203 23.1067 8.63993C23.4815 8.47604 23.8812 8.29887 23.9948 8.24621C24.8463 7.8518 27.3892 7.1365 28.7178 6.91761C32.5059 6.29358 36.4928 6.73053 40.0265 8.15701C40.4894 8.34389 41.0531 8.58948 41.2792 8.70285C41.5054 8.81614 41.718 8.89158 41.7518 8.87052C41.7856 8.84946 41.8132 8.8604 41.8132 8.89489C41.8132 8.92937 42.0663 9.09065 42.3755 9.25337C44.5938 10.4206 46.7168 12.044 48.7996 14.1654C50.276 15.6694 51.2418 16.8827 52.6951 19.0591L53.0609 19.607L52.7942 19.8685C52.4472 20.2086 52.2929 20.5481 52.2824 20.9945L52.2739 21.3556L47.9466 21.3867C43.2736 21.4203 42.8342 21.45 41.7099 21.8089C41.1516 21.987 40.5184 22.3392 40.5184 22.4716C40.5184 22.5126 40.4909 22.5289 40.4573 22.5079C40.3617 22.4482 39.6653 23.2491 39.3674 23.7614C39.2194 24.016 39.0375 24.4267 38.9633 24.674C38.6806 25.6159 38.669 26.0449 38.6935 34.6868C38.7169 42.9424 38.717 42.947 38.8669 43.5139C39.0484 44.2008 39.3884 44.8934 39.7694 45.3528C40.3415 46.0426 41.313 46.6994 42.2562 47.0341C43.2157 47.3745 43.4655 47.3864 49.6979 47.3864H55.5204L55.4986 44.6215L55.4769 41.8567L55.8209 41.778C56.0101 41.7347 56.3749 41.6001 56.6314 41.4788C58.4522 40.6182 59.8204 38.6333 60.3482 36.0869C60.4192 35.7444 60.4945 35.4467 60.5155 35.4253C60.5367 35.4041 60.5539 35.812 60.5539 36.332V37.2773L60.7072 37.2305C61.0406 37.1286 61.5339 36.8119 61.7425 36.5657C62.419 35.7676 62.7401 34.4626 62.5324 33.3564C62.4811 33.0831 62.4896 32.9397 62.5705 32.7102C62.9389 31.6667 63.0935 30.1846 62.9427 29.1418C62.8501 28.5016 62.554 27.535 62.2882 27.0051C61.527 25.4878 60.1645 24.0966 58.305 22.9381C57.8191 22.6353 56.1285 21.7639 55.6714 21.5807C55.4621 21.4967 55.4566 21.4831 55.4318 20.9882C55.4104 20.5595 55.3749 20.4363 55.2014 20.1869C54.9455 19.819 54.5349 19.5256 54.1932 19.4664C54.0495 19.4414 53.9219 19.3866 53.9096 19.3447C53.8974 19.3027 53.8053 18.8822 53.7049 18.4103C53.1284 15.6992 52.0057 12.8812 50.6532 10.751C49.5163 8.96028 47.5096 6.93124 45.0503 5.08564C44.161 4.41831 42.625 3.38576 42.5836 3.42747C42.5676 3.44372 42.4824 3.39051 42.3943 3.30929C41.9483 2.89829 39.4896 1.80509 37.8266 1.27846C34.7225 0.295327 31.6913 -0.126064 28.8652 0.0325948ZM6.00102 22.0041C5.49182 22.2867 3.79181 23.7072 3.1966 24.3473C2.96572 24.5957 2.75869 24.7857 2.73661 24.7697C2.71446 24.7536 2.71098 24.7605 2.72877 24.7847C2.74655 24.809 2.64481 24.9716 2.50265 25.146C2.27429 25.4264 2.15081 25.6016 1.6718 26.3251C1.4925 26.5959 1.08709 27.5619 0.932868 28.0859C0.514986 29.5057 0.654758 31.2866 1.28315 32.5498L1.41849 32.8219L1.55553 32.5498C1.84237 31.9805 2.41815 31.4269 2.64426 31.503C2.69033 31.5185 2.79439 31.854 2.87535 32.2486L3.02262 32.966L3.02984 32.4705C3.04075 31.727 3.22005 30.4753 3.41086 29.8101C3.59493 29.1687 4.02139 28.1805 4.14972 28.098C4.19374 28.0698 4.20526 28.0462 4.17534 28.0455C4.11101 28.0443 4.46177 27.514 4.80503 27.0936C5.12866 26.6972 5.98889 26.047 6.46593 25.8383C6.67773 25.7456 6.85164 25.644 6.85225 25.6125C6.85375 25.5372 6.1716 21.9639 6.1519 21.944C6.14352 21.9356 6.07564 21.9627 6.00102 22.0041ZM55.3065 23.491C55.3065 24.2045 55.3262 25.0685 55.3503 25.411L55.394 26.0337L55.801 26.1209C57.2145 26.4239 58.6783 27.7193 59.53 29.4212C59.8548 30.07 60.2489 31.2345 60.357 31.8647C60.4858 32.6157 60.5539 32.5501 60.5539 31.675V30.8728L60.834 30.9726C61.189 31.0991 61.5856 31.3926 61.8422 31.7188C61.9522 31.8585 62.059 31.9452 62.0797 31.9115C62.1003 31.8778 62.1641 31.5784 62.2215 31.2462C62.7772 28.027 60.9671 25.1299 57.0784 23.0145C56.9097 22.9228 56.7491 22.8167 56.7216 22.7788C56.6941 22.741 56.6711 22.7313 56.6705 22.7573C56.67 22.7832 56.3822 22.6671 56.0312 22.4992C55.6802 22.3312 55.3735 22.1938 55.3497 22.1938C55.3259 22.1938 55.3065 22.7775 55.3065 23.491ZM45.3529 27.01C44.9772 27.2106 44.7016 27.5387 44.5796 27.9305C44.4793 28.2525 44.47 28.9081 44.4866 34.4818C44.5042 40.3727 44.5113 40.687 44.6321 40.9161C44.702 41.0486 44.84 41.2448 44.9388 41.352C45.309 41.7538 45.144 41.7421 50.4763 41.7421H55.3747V34.3082V26.8744L50.4851 26.8774C45.8326 26.8803 45.5837 26.8867 45.3529 27.01Z" fill="#0A0300"/>
</svg>
