<svg xmlns="http://www.w3.org/2000/svg" fill="none" viewBox="0 0 33 32" height="32" width="33">
<path stroke-linejoin="round" stroke-linecap="round" stroke-width="2" stroke="#0A0300" d="M4.5 18.6667H8.5C9.20724 18.6667 9.88552 18.9476 10.3856 19.4477C10.8857 19.9478 11.1667 20.6261 11.1667 21.3333V25.3333C11.1667 26.0406 10.8857 26.7189 10.3856 27.219C9.88552 27.719 9.20724 28 8.5 28H7.16667C6.45942 28 5.78115 27.719 5.28105 27.219C4.78095 26.7189 4.5 26.0406 4.5 25.3333V16C4.5 12.8174 5.76428 9.76516 8.01472 7.51472C10.2652 5.26428 13.3174 4 16.5 4C19.6826 4 22.7348 5.26428 24.9853 7.51472C27.2357 9.76516 28.5 12.8174 28.5 16V25.3333C28.5 26.0406 28.219 26.7189 27.719 27.219C27.2189 27.719 26.5406 28 25.8333 28H24.5C23.7928 28 23.1145 27.719 22.6144 27.219C22.1143 26.7189 21.8333 26.0406 21.8333 25.3333V21.3333C21.8333 20.6261 22.1143 19.9478 22.6144 19.4477C23.1145 18.9476 23.7928 18.6667 24.5 18.6667H28.5"></path>
</svg>
