<svg xmlns="http://www.w3.org/2000/svg" fill="none" viewBox="0 0 33 32" height="32" width="33">
<g clip-path="url(#clip0_6865_11058)">
<path stroke-width="2" stroke="#0A0300" d="M14.9482 16.0003C14.9482 18.7037 14.1395 21.1113 12.8808 22.8195C11.6219 24.528 9.96405 25.483 8.22411 25.483C6.48417 25.483 4.82632 24.528 3.56739 22.8195C2.30875 21.1113 1.5 18.7037 1.5 16.0003C1.5 13.2969 2.30875 10.8892 3.56739 9.18109C4.82632 7.47256 6.48417 6.51758 8.22411 6.51758C9.96405 6.51758 11.6219 7.47256 12.8808 9.18109C14.1395 10.8892 14.9482 13.2969 14.9482 16.0003Z"></path>
<path stroke-width="2" stroke="#0A0300" d="M31.5 16.0003C31.5 18.7037 30.6912 21.1113 29.4326 22.8195C28.1737 24.528 26.5158 25.483 24.7759 25.483C23.0359 25.483 21.3781 24.528 20.1192 22.8195C18.8605 21.1113 18.0518 18.7037 18.0518 16.0003C18.0518 13.2969 18.8605 10.8892 20.1192 9.18109C21.3781 7.47256 23.0359 6.51758 24.7759 6.51758C26.5158 6.51758 28.1737 7.47256 29.4326 9.18109C30.6912 10.8892 31.5 13.2969 31.5 16.0003Z"></path>
<path fill="#0A0300" d="M6.56885 19.29V13.2422H7.84752V18.2358H10.4403V19.29H6.56885Z"></path>
<path fill="#0A0300" d="M22.2173 19.1065V13.0586H24.6034C25.0601 13.0586 25.4499 13.1403 25.7728 13.3037C26.0976 13.4651 26.3447 13.6945 26.514 13.9918C26.6853 14.2871 26.7709 14.6345 26.7709 15.0342C26.7709 15.4358 26.6843 15.7813 26.511 16.0707C26.3378 16.3581 26.0868 16.5786 25.758 16.7322C25.4312 16.8858 25.0355 16.9625 24.5709 16.9625H22.9733V15.9349H24.3642C24.6083 15.9349 24.8111 15.9014 24.9725 15.8345C25.1339 15.7675 25.254 15.6671 25.3328 15.5333C25.4135 15.3994 25.4538 15.233 25.4538 15.0342C25.4538 14.8334 25.4135 14.6641 25.3328 14.5263C25.254 14.3885 25.1329 14.2841 24.9695 14.2132C24.8081 14.1404 24.6043 14.104 24.3583 14.104H23.496V19.1065H22.2173ZM25.4834 16.3542L26.9865 19.1065H25.5749L24.1043 16.3542H25.4834Z"></path>
</g>
<defs>
<clipPath id="clip0_6865_11058">
<rect transform="translate(0.5)" fill="white" height="32" width="32"></rect>
</clipPath>
</defs>
</svg>
