<svg xmlns="http://www.w3.org/2000/svg" fill="none" viewBox="0 0 33 32" height="32" width="33">
<path stroke-width="2" stroke="#0A0300" d="M7.16659 11.2882V10.1327C7.16659 8.2181 8.95745 6.66602 11.1666 6.66602H13.8333V23.9993H11.1666C8.95745 23.9993 7.16659 22.4473 7.16659 20.5327V11.2882ZM7.16659 11.2882H5.65547C4.2809 11.2882 3.16659 12.254 3.16659 13.4453V17.066C3.16659 18.9806 4.95745 19.3771 7.16659 19.3771V11.2882Z"></path>
<path stroke-width="2" stroke="#0A0300" d="M25.8334 11.2882V10.1327C25.8334 8.2181 24.0426 6.66602 21.8334 6.66602H19.1667V23.9993H21.8334C24.0426 23.9993 25.8334 22.4473 25.8334 20.5327V11.2882ZM25.8334 11.2882H27.3445C28.7191 11.2882 29.8334 12.254 29.8334 13.4453V17.066C29.8334 18.9806 28.0426 19.3771 25.8334 19.3771V11.2882Z"></path>
</svg>
